<svg xmlns="http://www.w3.org/2000/svg" width="14" height="15" viewBox="0 0 14 15"><g><g><g/><g><path fill="#fff" d="M11.665 14.357h-.175c-1.867-.234-3.733-.875-5.308-1.867a12.266 12.266 0 0 1-3.675-3.675A11.617 11.617 0 0 1 .64 3.507c0-.467.117-.934.408-1.284.292-.35.7-.583 1.167-.641H4.14a1.76 1.76 0 0 1 1.75 1.516c.058.525.175 1.05.35 1.517.233.642.058 1.342-.408 1.867l-.409.408c.7 1.05 1.575 1.983 2.684 2.683l.408-.408a1.823 1.823 0 0 1 1.867-.408c.466.175.991.291 1.516.35a1.761 1.761 0 0 1 1.517 1.75v1.75c0 .466-.175.933-.525 1.225-.35.291-.758.525-1.225.525zM2.39 2.748c-.175 0-.35.117-.467.234a.843.843 0 0 0-.116.408 10.972 10.972 0 0 0 1.691 4.783c.875 1.342 1.984 2.509 3.325 3.325a10.972 10.972 0 0 0 4.784 1.692c.233 0 .35-.058.466-.175a.53.53 0 0 0 .175-.408v-1.75c0-.292-.233-.525-.525-.584-.583-.058-1.166-.233-1.75-.466-.233-.059-.466-.059-.641.116l-.759.759a.62.62 0 0 1-.7.116A9.572 9.572 0 0 1 4.14 7.065c-.058-.233 0-.525.175-.7l.758-.758c.117-.117.175-.409.117-.584-.233-.583-.35-1.166-.467-1.75 0-.291-.291-.525-.583-.525zm8.692 4.084a.568.568 0 0 1-.584-.467c-.175-.933-.933-1.633-1.866-1.867a.605.605 0 0 1-.467-.7.605.605 0 0 1 .7-.466c1.4.291 2.508 1.341 2.742 2.741.058.292-.117.642-.467.7 0 0 0 .059-.058.059zm2.333-.059c-.292 0-.525-.233-.583-.525-.234-2.158-1.925-3.85-4.142-4.141a.683.683 0 0 1-.525-.642c0-.292.35-.525.642-.525 2.741.292 4.841 2.392 5.133 5.133.058.292-.175.584-.525.642.058.058 0 .058 0 .058z"/></g></g></g></svg>