<svg xmlns="http://www.w3.org/2000/svg" width="14" height="14" viewBox="0 0 14 14"><g><g><g/><g><path fill="#fff" d="M2.604 9.024a2.917 2.917 0 0 1 2.063-.854h4.666a2.917 2.917 0 0 1 2.917 2.917v1.166a.583.583 0 0 1-1.167 0v-1.166a1.75 1.75 0 0 0-1.75-1.75H4.667a1.75 1.75 0 0 0-1.75 1.75v1.166a.583.583 0 1 1-1.167 0v-1.166c0-.774.307-1.516.854-2.063z"/></g><g><path fill="#fff" d="M8.747 4.087a1.75 1.75 0 1 1-3.5 0 1.75 1.75 0 0 1 3.5 0zm-1.75 2.916a2.917 2.917 0 1 0 0-5.833 2.917 2.917 0 0 0 0 5.833z"/></g></g></g></svg>