<svg xmlns="http://www.w3.org/2000/svg" width="14" height="14" viewBox="0 0 14 14"><g><g><g/><g><path fill="#fff" d="M6.645.703a.583.583 0 0 1 .716 0l5.25 4.083c.143.11.226.28.226.46v6.417a1.75 1.75 0 0 1-1.75 1.75H2.92a1.75 1.75 0 0 1-1.75-1.75V5.247c0-.18.083-.35.225-.46zM2.337 5.532v6.131a.583.583 0 0 0 .583.584h1.75v.583a.583.583 0 1 0 1.167 0v-.583H8.17v.583a.583.583 0 1 0 1.167 0v-.583h1.75a.583.583 0 0 0 .583-.584V5.532l-4.667-3.63zm3.5 2.048H8.17v4.667h1.167v-5.25a.583.583 0 0 0-.584-.584h-3.5a.583.583 0 0 0-.583.584v5.25h1.167z"/></g></g></g></svg>