<svg xmlns="http://www.w3.org/2000/svg" width="8" height="8" viewBox="0 0 8 8"><g><g><g><g/><g><path fill="#f2994a" d="M3.997.33c.127 0 .242.072.299.186l.952 1.93 2.13.31a.333.333 0 0 1 .185.57l-1.541 1.5.363 2.121a.333.333 0 0 1-.483.351L3.997 6.297 2.092 7.298a.333.333 0 0 1-.484-.351l.364-2.12L.43 3.324a.333.333 0 0 1 .184-.568l2.13-.312.953-1.93A.333.333 0 0 1 3.997.33zm0 1.086l-.731 1.482a.333.333 0 0 1-.251.182l-1.636.239L2.563 4.47a.333.333 0 0 1 .096.295l-.28 1.628 1.463-.769a.333.333 0 0 1 .31 0l1.462.769-.28-1.628a.333.333 0 0 1 .097-.295L6.614 3.32l-1.636-.24a.333.333 0 0 1-.25-.181z"/></g></g><g><path fill="#f2994a" d="M2.333 5L1 3l2-.333L4 1l1 1.667 2 .666-1.333 1.334L6 7 4 6 2 7z"/></g></g></g></svg>